# xmcd CD database file
#
# Track frame offsets:
#	150
#	13842
#	29668
#	47658
#	56964
#	69155
#	84834
#	101200
#	113062
#	126692
#	134499
#	152161
#	165876
#	181689
#	213548
#	223824
#	240351
#	257404
#	272851
#	291499
#
# Disc length: 4060 seconds
#
# Revision: 0
# Processed by: cddbd v1.5.2PL0 Copyright (c) Steve Scherf et al.
# Submitted via: CDex 1.85
#
DISCID=2b0fda14
DTITLE=Ella Fitzgerald - Songbooks [CD1]
DYEAR=2012
DGENRE=Jazz
TTITLE0=Night And Day
TTITLE1=Let's Do It (Let's Fall In Love)
TTITLE2=I Get A Kick Out Of You
TTITLE3=What Is This Thing Called Love?
TTITLE4=I've Got You Under My Skin
TTITLE5=Ev'ry Time We Say Goodbye
TTITLE6=Begin The Beguine
TTITLE7=In The Still Of The Night
TTITLE8=Miss Otis Regrets
TTITLE9=All Of You
TTITLE10=My Funny Valentine
TTITLE11=Isn't It Romantic?
TTITLE12=There's A Small Hotel
TTITLE13=Bewitched, Bothered And Bewildered
TTITLE14=Mountain Greenery
TTITLE15=I Could Write A Book
TTITLE16=I Didn't Know What Time It Was
TTITLE17=The Lady Is A Tramp
TTITLE18=It Never Entered My Mind
TTITLE19=Manhattan
EXTD=YEAR: 2012
EXTT0=
EXTT1=
EXTT2=
EXTT3=
EXTT4=
EXTT5=
EXTT6=
EXTT7=
EXTT8=
EXTT9=
EXTT10=
EXTT11=
EXTT12=
EXTT13=
EXTT14=
EXTT15=
EXTT16=
EXTT17=
EXTT18=
EXTT19=
PLAYORDER=
